<svg class="svg-icon" width="150" height="150" style="vertical-align: middle; overflow: hidden;" viewBox="0 0 1024 1024" version="1.1" xmlns="http://www.w3.org/2000/svg">
  <path d="M741.376 520.3456a15.36 15.36 0 0 1-10.8032-4.4544 15.36 15.36 0 0 1 0-21.9136l0.768-0.7168a115.8144 115.8144 0 0 0 0-163.4304 15.36 15.36 0 1 1 21.2992-21.76 146.7392 146.7392 0 0 1 0 207.2064l-0.5632 0.5632a15.0016 15.0016 0 0 1-10.7008 4.5056z" fill="#f59c26"/>
  <path d="M814.08 593.0496a15.36 15.36 0 0 1-10.8032-26.4192l0.6656-0.6144a218.88 218.88 0 0 0-0.1024-308.9408 15.36 15.36 0 0 1 21.6064-21.5552 249.6512 249.6512 0 0 1 0 352.6144l-0.6144 0.6144a15.36 15.36 0 0 1-10.752 4.3008zM282.1632 520.0896a15.36 15.36 0 0 1-10.8544-4.4544 146.7392 146.7392 0 0 1 0-207.2064l0.5632-0.512a15.36 15.36 0 0 1 21.5552 0 15.36 15.36 0 0 1 0 21.9136l-0.768 0.7168a115.8144 115.8144 0 0 0 0 163.4304 15.36 15.36 0 0 1-10.8544 26.2144z" fill="#f59c26"/>
  <path d="M209.408 592.8448a15.36 15.36 0 0 1-10.8544-4.5056 249.6512 249.6512 0 0 1 0-352.6144l0.6144-0.6144a15.36 15.36 0 0 1 21.6064 0 15.36 15.36 0 0 1 0 21.8112l-0.6656 0.6144a218.88 218.88 0 0 0 0.0512 309.0944 15.36 15.36 0 0 1 0 21.7088 15.36 15.36 0 0 1-10.752 4.5056zM521.9328 558.08a146.2272 146.2272 0 1 1 146.2272-146.2272A146.3808 146.3808 0 0 1 521.9328 558.08z m0-261.7344a115.5072 115.5072 0 1 0 115.5072 115.5072 115.6608 115.6608 0 0 0-115.5072-115.5072z" fill="#f59c26"/>
  <path d="M757.76 793.1392a15.36 15.36 0 0 1-15.36-15.36 220.16 220.16 0 0 0-440.32 0h-30.72a250.88 250.88 0 0 1 501.76 0 15.36 15.36 0 0 1-15.36 15.36z" fill="#f59c26"/>
  <path d="M521.9328 558.08a146.2272 146.2272 0 1 1 146.2272-146.2272A146.3808 146.3808 0 0 1 521.9328 558.08z m0-261.7344a115.5072 115.5072 0 1 0 115.5072 115.5072 115.6608 115.6608 0 0 0-115.5072-115.5072z" fill="#f59c26"/>
</svg>
